<svg id="logo_Platformable_black" data-name="logo Platformable black" xmlns="http://www.w3.org/2000/svg" xmlns:xlink="http://www.w3.org/1999/xlink" width="205" height="32.777" viewBox="0 0 205 32.777">
  <defs>
    <clipPath id="clipPath">
      <rect id="Rectangle_2006" data-name="Rectangle 2006" width="205" height="32.777" fill="none"/>
    </clipPath>
  </defs>
  <g id="Group_3036" data-name="Group 3036" clipPath="url(#clipPath)">
    <path id="Path_9248" data-name="Path 9248" d="M73.01,19.151a4.937,4.937,0,0,1-2.062,1.955,7.259,7.259,0,0,1-3.454.743H64.953v6.043h-4.1V11.058h6.642a7.565,7.565,0,0,1,3.405.7,4.78,4.78,0,0,1,2.086,1.918,5.573,5.573,0,0,1,.7,2.806,5.416,5.416,0,0,1-.672,2.673m-4.076-1.115a2.059,2.059,0,0,0,.575-1.559,2.059,2.059,0,0,0-.575-1.559,2.447,2.447,0,0,0-1.75-.552h-2.23v4.221h2.23a2.446,2.446,0,0,0,1.75-.551" transform="translate(-19.948 -3.625)"/>
    <rect id="Rectangle_2003" data-name="Rectangle 2003" width="4.101" height="17.745" transform="translate(56.252 6.522)"/>
    <path id="Path_9249" data-name="Path 9249" d="M94.345,19.147a5.805,5.805,0,0,1,2.121-2.4,5.547,5.547,0,0,1,3-.84,5.147,5.147,0,0,1,2.482.576A4.249,4.249,0,0,1,103.59,18V16.1h4.1V29.483h-4.1V27.588a4.44,4.44,0,0,1-1.668,1.511,5.147,5.147,0,0,1-2.482.575,5.44,5.44,0,0,1-2.974-.852A5.871,5.871,0,0,1,94.345,26.4a8.058,8.058,0,0,1-.78-3.634,7.98,7.98,0,0,1,.78-3.62m8.393,1.223a2.884,2.884,0,0,0-4.149-.012,3.31,3.31,0,0,0-.851,2.41,3.392,3.392,0,0,0,.851,2.434,2.856,2.856,0,0,0,4.149.012,3.354,3.354,0,0,0,.852-2.421,3.358,3.358,0,0,0-.852-2.423" transform="translate(-30.671 -5.215)"/>
    <path id="Path_9250" data-name="Path 9250" d="M126.55,24.509v3.477h-2.087a5.106,5.106,0,0,1-3.477-1.091,4.506,4.506,0,0,1-1.248-3.561V18.01h-1.631v-3.4h1.631V11.343h4.1v3.262h2.686v3.4h-2.686v5.372a1.123,1.123,0,0,0,.287.863,1.407,1.407,0,0,0,.96.264Z" transform="translate(-38.717 -3.719)"/>
    <path id="Path_9251" data-name="Path 9251" d="M140.815,16.958h-2.206v9.976h-4.1V16.958h-1.487v-3.4h1.487v-.384a4.808,4.808,0,0,1,1.415-3.753,5.985,5.985,0,0,1,4.149-1.283q.456,0,.672.024v3.477a2.355,2.355,0,0,0-1.655.336,1.846,1.846,0,0,0-.479,1.463v.12h2.206Z" transform="translate(-43.605 -2.666)"/>
    <path id="Path_9252" data-name="Path 9252" d="M150.2,28.836a6.146,6.146,0,0,1-2.47-2.4,7.165,7.165,0,0,1-.9-3.645,7.1,7.1,0,0,1,.911-3.633,6.186,6.186,0,0,1,2.493-2.41,7.922,7.922,0,0,1,7.1,0,6.19,6.19,0,0,1,2.495,2.41,7.116,7.116,0,0,1,.911,3.633,7.029,7.029,0,0,1-.924,3.633,6.24,6.24,0,0,1-2.517,2.41,7.532,7.532,0,0,1-3.561.839,7.388,7.388,0,0,1-3.537-.839m5.54-3.573a3.431,3.431,0,0,0,.827-2.47,3.5,3.5,0,0,0-.8-2.47,2.725,2.725,0,0,0-3.969-.011A3.519,3.519,0,0,0,151,22.793a3.563,3.563,0,0,0,.78,2.47,2.524,2.524,0,0,0,1.954.863,2.673,2.673,0,0,0,2-.863" transform="translate(-48.131 -5.216)"/>
    <path id="Path_9253" data-name="Path 9253" d="M177.235,16.617a4.638,4.638,0,0,1,2.4-.636v4.341h-1.127a3.458,3.458,0,0,0-2.3.659,2.928,2.928,0,0,0-.768,2.314v6.211h-4.1V16.126h4.1v2.23a5.406,5.406,0,0,1,1.8-1.738" transform="translate(-56.165 -5.239)"/>
    <path id="Path_9254" data-name="Path 9254" d="M208.217,17.492a5.752,5.752,0,0,1,1.475,4.2v7.818h-4.077V22.24a2.762,2.762,0,0,0-.684-2,2.856,2.856,0,0,0-3.764,0,2.762,2.762,0,0,0-.684,2v7.266h-4.077V22.24a2.762,2.762,0,0,0-.684-2,2.856,2.856,0,0,0-3.764,0,2.762,2.762,0,0,0-.684,2v7.266h-4.1V16.126h4.1V17.8a4.4,4.4,0,0,1,1.631-1.332,5.13,5.13,0,0,1,2.277-.491,5.535,5.535,0,0,1,2.7.648,4.631,4.631,0,0,1,1.859,1.847,5.4,5.4,0,0,1,1.894-1.8,5.123,5.123,0,0,1,2.614-.7,5.294,5.294,0,0,1,3.969,1.511" transform="translate(-61.357 -5.239)"/>
    <path id="Path_9255" data-name="Path 9255" d="M225.092,19.147a5.811,5.811,0,0,1,2.122-2.4,5.543,5.543,0,0,1,3-.84,5.144,5.144,0,0,1,2.481.576A4.244,4.244,0,0,1,234.336,18V16.1h4.1V29.483h-4.1V27.588a4.433,4.433,0,0,1-1.667,1.511,5.147,5.147,0,0,1-2.482.575,5.439,5.439,0,0,1-2.974-.852,5.877,5.877,0,0,1-2.122-2.421,8.067,8.067,0,0,1-.78-3.634,7.989,7.989,0,0,1,.78-3.62m8.393,1.223a2.884,2.884,0,0,0-4.149-.012,3.31,3.31,0,0,0-.851,2.41,3.392,3.392,0,0,0,.851,2.434,2.855,2.855,0,0,0,4.149.012,3.351,3.351,0,0,0,.852-2.421,3.355,3.355,0,0,0-.852-2.423" transform="translate(-73.531 -5.215)"/>
    <path id="Path_9256" data-name="Path 9256" d="M256.073,14.451a5.176,5.176,0,0,1,2.47-.575,5.541,5.541,0,0,1,3,.84,5.809,5.809,0,0,1,2.122,2.4,7.992,7.992,0,0,1,.78,3.621,8.062,8.062,0,0,1-.78,3.633,5.875,5.875,0,0,1-2.122,2.422,5.476,5.476,0,0,1-3,.851,5.17,5.17,0,0,1-2.47-.563,4.346,4.346,0,0,1-1.654-1.5v1.87h-4.1V9.7h4.1v6.259a4.224,4.224,0,0,1,1.654-1.511m3.346,3.873a2.811,2.811,0,0,0-2.1-.875,2.766,2.766,0,0,0-2.074.887,3.351,3.351,0,0,0-.852,2.422,3.349,3.349,0,0,0,.852,2.422,2.868,2.868,0,0,0,4.16-.012,3.366,3.366,0,0,0,.864-2.434,3.308,3.308,0,0,0-.852-2.41" transform="translate(-82.055 -3.181)"/>
    <rect id="Rectangle_2004" data-name="Rectangle 2004" width="4.101" height="17.745" transform="translate(184.928 6.522)"/>
    <path id="Path_9257" data-name="Path 9257" d="M298.351,23.776H289.07a2.789,2.789,0,0,0,.8,1.906,2.454,2.454,0,0,0,1.738.659,2.156,2.156,0,0,0,2.135-1.295h4.364a6,6,0,0,1-1.21,2.374,6.073,6.073,0,0,1-2.195,1.654,7.046,7.046,0,0,1-2.95.6,7.18,7.18,0,0,1-3.5-.839,5.97,5.97,0,0,1-2.4-2.4,7.4,7.4,0,0,1-.863-3.645,7.484,7.484,0,0,1,.851-3.645,5.894,5.894,0,0,1,2.386-2.4,7.767,7.767,0,0,1,6.978-.025,5.863,5.863,0,0,1,2.362,2.326,7.061,7.061,0,0,1,.851,3.525,10.525,10.525,0,0,1-.071,1.2M294.226,21.5a2.108,2.108,0,0,0-.719-1.678,2.648,2.648,0,0,0-1.8-.624,2.6,2.6,0,0,0-1.739.6,2.661,2.661,0,0,0-.875,1.7Z" transform="translate(-93.422 -5.215)"/>
    <path id="Path_9258" data-name="Path 9258" d="M16.547,0,0,16.073l16.547,16.7,3.309-3.309L6.618,16.073,16.547,6.3l9.928,9.77-6.618,6.776,3.309,3.309,9.928-10.085Z" transform="translate(0 0)"/>
    <rect id="Rectangle_2005" data-name="Rectangle 2005" width="5.308" height="5.308" transform="translate(12.951 15.946) rotate(-45)"/>
  </g>
</svg>
