<svg xmlns="http://www.w3.org/2000/svg" xmlns:xlink="http://www.w3.org/1999/xlink" width="357.843" height="76.931" viewBox="0 0 357.843 76.931">
  <defs>
    <clipPath id="clip-path">
      <rect id="Rectangle_5646" data-name="Rectangle 5646" width="109.544" height="70.931" fill="none"/>
    </clipPath>
    <clipPath id="clip-path-2">
      <rect id="Rectangle_5647" data-name="Rectangle 5647" width="109.544" height="70.931" fill="none" stroke="#707070" stroke-linecap="round" stroke-width="3" stroke-dasharray="6"/>
    </clipPath>
    <linearGradient id="linear-gradient" x1="0.147" x2="0.825" y2="1" gradientUnits="objectBoundingBox">
      <stop offset="0" stop-color="#6129ec"/>
      <stop offset="0.383" stop-color="#d563f5"/>
      <stop offset="1" stop-color="#22da8f"/>
    </linearGradient>
  </defs>
  <g id="Traceability_logo" data-name="Traceability logo" transform="translate(3 3)">
    <g id="Group_9047" data-name="Group 9047" transform="translate(16987 -9579.567)">
      <g id="Group_9045" data-name="Group 9045" transform="translate(-16987 9579.567)">
        <path id="Path_23809" data-name="Path 23809" d="M99.136,70.978h40.392v3.166" transform="translate(-80.003 -60.121)" fill="none" stroke="#29d593" stroke-width="1"/>
        <path id="Path_23812" data-name="Path 23812" d="M90.358,174.54v10.012s-3.122.089-4.571.089" transform="translate(-66.279 -132.1)" fill="none" stroke="#ff7f12" stroke-linecap="round" stroke-width="1"/>
        <path id="Path_23813" data-name="Path 23813" d="M39.254,161.985V138.321" transform="translate(-29.828 -117.781)" fill="none" stroke="#f157ff" stroke-linecap="round" stroke-width="1"/>
        <g id="Group_9044" data-name="Group 9044">
          <circle id="Ellipse_689" data-name="Ellipse 689" cx="9.349" cy="9.349" r="9.349" transform="translate(0.375 1.56)" fill="none" stroke="#008cfe" stroke-width="1"/>
        </g>
      </g>
      <circle id="Ellipse_691" data-name="Ellipse 691" cx="9.349" cy="9.349" r="9.349" transform="translate(-16986.559 9624.363)" fill="none" stroke="#29d593" stroke-width="1"/>
      <path id="Path_23829" data-name="Path 23829" d="M203.667,21.961a.512.512,0,0,1-.386.44c-.455.179-.9.384-1.365.537a2.863,2.863,0,0,0-1.923,1.879c-.165.476-.366.94-.55,1.41-.088.226-.21.418-.488.408s-.389-.2-.476-.429c-.173-.457-.379-.9-.533-1.367a2.848,2.848,0,0,0-1.863-1.879c-.475-.168-.939-.367-1.409-.55-.228-.089-.41-.209-.4-.491.007-.261.191-.371.394-.453q.786-.318,1.579-.621a2.675,2.675,0,0,0,1.647-1.674c.18-.5.394-.995.587-1.494.087-.225.194-.431.47-.433.293,0,.416.208.509.451.185.485.386.965.569,1.451a2.748,2.748,0,0,0,1.636,1.693c.528.2,1.056.406,1.582.615.22.088.415.208.423.506" transform="translate(-17176.178 9568.278)" fill="#fff"/>
      <path id="Path_23830" data-name="Path 23830" d="M203.667,21.961a.512.512,0,0,1-.386.44c-.455.179-.9.384-1.365.537a2.863,2.863,0,0,0-1.923,1.879c-.165.476-.366.94-.55,1.41-.088.226-.21.418-.488.408s-.389-.2-.476-.429c-.173-.457-.379-.9-.533-1.367a2.848,2.848,0,0,0-1.863-1.879c-.475-.168-.939-.367-1.409-.55-.228-.089-.41-.209-.4-.491.007-.261.191-.371.394-.453q.786-.318,1.579-.621a2.675,2.675,0,0,0,1.647-1.674c.18-.5.394-.995.587-1.494.087-.225.194-.431.47-.433.293,0,.416.208.509.451.185.485.386.965.569,1.451a2.748,2.748,0,0,0,1.636,1.693c.528.2,1.056.406,1.582.615.22.088.415.208.423.506" transform="translate(-17176.18 9611.772)" fill="#fff"/>
    </g>
    <path id="Path_23839" data-name="Path 23839" d="M-108.919-30.186V-24.3h-8V0h-7.353V-24.3h-8v-5.891ZM-97.868-20a9.7,9.7,0,0,1,3.225-3.118,8.316,8.316,0,0,1,4.3-1.139v7.783h-2.021a6.2,6.2,0,0,0-4.128,1.182q-1.376,1.183-1.376,4.15V0h-7.353V-23.994h7.353Zm9.589,7.955a14.34,14.34,0,0,1,1.4-6.493,10.424,10.424,0,0,1,3.805-4.3,9.935,9.935,0,0,1,5.375-1.5,9.234,9.234,0,0,1,4.451,1.032A7.6,7.6,0,0,1-70.305-20.6v-3.4h7.353V0h-7.353V-3.4A7.94,7.94,0,0,1-73.294-.688,9.234,9.234,0,0,1-77.744.344a9.756,9.756,0,0,1-5.332-1.527,10.548,10.548,0,0,1-3.805-4.343A14.476,14.476,0,0,1-88.279-12.04ZM-70.305-12a6.012,6.012,0,0,0-1.527-4.343,4.96,4.96,0,0,0-3.719-1.591,4.992,4.992,0,0,0-3.719,1.569A5.935,5.935,0,0,0-80.8-12.04a6.089,6.089,0,0,0,1.527,4.365,4.928,4.928,0,0,0,3.719,1.612,4.96,4.96,0,0,0,3.719-1.591A6.012,6.012,0,0,0-70.305-12Zm11.223,0a13.426,13.426,0,0,1,1.527-6.536,10.6,10.6,0,0,1,4.257-4.3,12.747,12.747,0,0,1,6.257-1.5A11.9,11.9,0,0,1-39.5-21.973a11.158,11.158,0,0,1,3.977,6.665h-7.826a3.766,3.766,0,0,0-3.827-2.752A3.857,3.857,0,0,0-50.4-16.49,7.261,7.261,0,0,0-51.6-12,7.261,7.261,0,0,0-50.4-7.5a3.857,3.857,0,0,0,3.225,1.569,3.766,3.766,0,0,0,3.827-2.752h7.826a11.264,11.264,0,0,1-4,6.622A11.774,11.774,0,0,1-47.042.344,12.747,12.747,0,0,1-53.3-1.161a10.6,10.6,0,0,1-4.257-4.3A13.426,13.426,0,0,1-59.082-12Zm50.1-.387a18.77,18.77,0,0,1-.129,2.15H-25.757a5,5,0,0,0,1.441,3.418A4.4,4.4,0,0,0-21.2-5.633a3.864,3.864,0,0,0,3.827-2.322h7.826A10.739,10.739,0,0,1-11.718-3.7,10.872,10.872,0,0,1-15.652-.731,12.638,12.638,0,0,1-20.941.344a12.87,12.87,0,0,1-6.278-1.505,10.7,10.7,0,0,1-4.3-4.3A13.275,13.275,0,0,1-33.067-12a13.426,13.426,0,0,1,1.527-6.536,10.566,10.566,0,0,1,4.279-4.3,12.96,12.96,0,0,1,6.321-1.5,12.831,12.831,0,0,1,6.192,1.462A10.5,10.5,0,0,1-10.514-18.7,12.66,12.66,0,0,1-8.987-12.384Zm-7.525-1.935a3.781,3.781,0,0,0-1.29-3.01,4.749,4.749,0,0,0-3.225-1.118,4.657,4.657,0,0,0-3.118,1.075,4.775,4.775,0,0,0-1.569,3.053Zm9.933,2.279a14.34,14.34,0,0,1,1.4-6.493,10.424,10.424,0,0,1,3.806-4.3A9.935,9.935,0,0,1,4-24.338a9.234,9.234,0,0,1,4.451,1.032A7.6,7.6,0,0,1,11.395-20.6v-3.4h7.353V0H11.395V-3.4A7.94,7.94,0,0,1,8.406-.688,9.234,9.234,0,0,1,3.956.344,9.756,9.756,0,0,1-1.376-1.183,10.548,10.548,0,0,1-5.182-5.525,14.476,14.476,0,0,1-6.579-12.04ZM11.395-12A6.012,6.012,0,0,0,9.868-16.34a4.96,4.96,0,0,0-3.719-1.591,4.992,4.992,0,0,0-3.72,1.569A5.935,5.935,0,0,0,.9-12.04,6.089,6.089,0,0,0,2.429-7.675a4.928,4.928,0,0,0,3.72,1.612A4.96,4.96,0,0,0,9.868-7.654,6.012,6.012,0,0,0,11.395-12Zm20.038-8.6A7.567,7.567,0,0,1,34.4-23.306a9.267,9.267,0,0,1,4.429-1.032,9.935,9.935,0,0,1,5.375,1.5,10.424,10.424,0,0,1,3.805,4.3,14.34,14.34,0,0,1,1.4,6.493,14.476,14.476,0,0,1-1.4,6.515A10.548,10.548,0,0,1,44.2-1.183,9.831,9.831,0,0,1,38.829.344,9.266,9.266,0,0,1,34.4-.666a7.814,7.814,0,0,1-2.967-2.688V0H24.08V-31.82h7.353ZM41.925-12.04A5.935,5.935,0,0,0,40.4-16.361a5.042,5.042,0,0,0-3.763-1.569,4.96,4.96,0,0,0-3.719,1.591A6.012,6.012,0,0,0,31.39-12a6.012,6.012,0,0,0,1.527,4.343,4.96,4.96,0,0,0,3.719,1.591,5,5,0,0,0,3.741-1.612A6.038,6.038,0,0,0,41.925-12.04Zm15.05-14.448a4.457,4.457,0,0,1-3.16-1.139,3.692,3.692,0,0,1-1.225-2.817,3.74,3.74,0,0,1,1.225-2.86,4.457,4.457,0,0,1,3.16-1.139A4.4,4.4,0,0,1,60.092-33.3a3.74,3.74,0,0,1,1.226,2.86,3.692,3.692,0,0,1-1.226,2.817A4.4,4.4,0,0,1,56.975-26.488Zm3.655,2.494V0H53.277V-23.994ZM73.315-31.82V0H65.962V-31.82Zm9.03,5.332a4.457,4.457,0,0,1-3.16-1.139,3.692,3.692,0,0,1-1.226-2.817,3.74,3.74,0,0,1,1.226-2.86,4.457,4.457,0,0,1,3.16-1.139A4.4,4.4,0,0,1,85.463-33.3a3.74,3.74,0,0,1,1.226,2.86,3.692,3.692,0,0,1-1.226,2.817A4.4,4.4,0,0,1,82.345-26.488ZM86-23.994V0H78.647V-23.994ZM104.705-6.235V0h-3.741a9.157,9.157,0,0,1-6.235-1.956q-2.236-1.956-2.236-6.386v-9.546H89.569v-6.106h2.924v-5.848h7.353v5.848h4.816v6.106H99.846v9.632a2.015,2.015,0,0,0,.516,1.548,2.519,2.519,0,0,0,1.72.473ZM133.3-23.994,118.25,11.395h-7.912l5.5-12.212-9.761-23.177h8.213l5.547,15.007,5.5-15.007Z" transform="translate(221.543 51.223)" fill="#fff"/>
    <g id="Group_9048" data-name="Group 9048" transform="translate(-95.835 -15.777)">
      <path id="Path_23832" data-name="Path 23832" d="M96.024,70.978h33" transform="translate(84.521 161.526) rotate(-90)" fill="none" stroke="#fff" stroke-linecap="round" stroke-width="1"/>
      <path id="Path_23834" data-name="Path 23834" d="M96.024,70.978H127.7" transform="translate(44.477 -21.478)" fill="none" stroke="#fff" stroke-linecap="round" stroke-width="1"/>
      <path id="Path_23833" data-name="Path 23833" d="M214.524,25.78a4.665,4.665,0,0,1-1.293,2.316c-.958.377-1.9.809-2.873,1.129a6.025,6.025,0,0,0-4.047,3.954c-.347,1-.77,1.978-1.156,2.967-.186.476-.441.881-1.028.859s-.818-.419-1-.9c-.365-.962-.8-1.9-1.121-2.877a5.992,5.992,0,0,0-3.92-3.954c-1-.353-1.977-.773-2.966-1.157-.479-.186-.863-.441-.848-1.032.014-.549.4-.78.83-.953q1.655-.668,3.322-1.307a5.629,5.629,0,0,0,3.466-3.523c.379-1.06.83-2.093,1.235-3.144.183-.474.408-.908.989-.911.617,0,.876.438,1.071.95.39,1.021.813,2.03,1.2,3.054a6.257,6.257,0,0,0,2.178,2.9,5.282,5.282,0,0,0,1.265.662l.079.03,3.249,1.264c.463.184,1.744-.627,1.762,0" transform="translate(-48.656 21.876)" fill="#3423c5" stroke="#3423c5" stroke-width="3"/>
      <path id="Path_23835" data-name="Path 23835" d="M9.64,31.776A15.7,15.7,0,0,1,9.793,9.662a15.478,15.478,0,0,1,21.889.063l.091.092a15.7,15.7,0,0,1-.152,22.113,15.477,15.477,0,0,1-21.888-.06l-.093-.094M20.608,2.618a17.918,17.918,0,0,0-9.931,3.054A18.254,18.254,0,0,0,5.655,30.891,18.011,18.011,0,0,0,30.6,36.021l.118-.079L33.83,38.98l-.026.027,2.533,2.582,3.877,4.035.042-.042,4.424,4.51a2.2,2.2,0,0,0,1.074.615,2.775,2.775,0,0,0,.564.059h.01a2.8,2.8,0,0,0,2.024-.872l.038-.038a2.68,2.68,0,0,0,.89-1.991v-.021a2.676,2.676,0,0,0-.636-1.726l-4.378-4.554.023-.023-9.346-9.536a18.275,18.275,0,0,0,.8-21.283,18.031,18.031,0,0,0-14.985-8.1Z" transform="translate(135.098 28.506)" fill="url(#linear-gradient)"/>
      <path id="Path_23836" data-name="Path 23836" d="M211.841,26.064a.958.958,0,0,1-.721.823c-.851.335-1.686.719-2.553,1a5.354,5.354,0,0,0-3.6,3.514c-.308.891-.684,1.758-1.028,2.636-.165.423-.392.783-.913.764s-.727-.372-.889-.8c-.324-.855-.709-1.689-1-2.556a5.325,5.325,0,0,0-3.484-3.514c-.889-.314-1.757-.687-2.636-1.028-.426-.166-.767-.392-.754-.917.012-.488.357-.693.738-.847q1.471-.594,2.952-1.162a5,5,0,0,0,3.08-3.131c.337-.942.737-1.86,1.1-2.794.163-.422.362-.807.879-.809.548,0,.778.389.952.844.347.908.723,1.8,1.064,2.714a5.139,5.139,0,0,0,3.059,3.166c.987.38,1.975.759,2.957,1.15.411.164.775.389.792.945" transform="translate(-47.556 22.976)" fill="#fff"/>
    </g>
    <path id="Path_23837" data-name="Path 23837" d="M-15954.413,8150.925v18.758h30.092v-7.62" transform="translate(15983.669 -8108.777)" fill="none" stroke="#008cfe" stroke-width="1"/>
    <circle id="Ellipse_692" data-name="Ellipse 692" cx="9.349" cy="9.349" r="9.349" transform="translate(17.324 23.685)" fill="none" stroke="#ffce2e" stroke-width="1"/>
    <path id="Path_23838" data-name="Path 23838" d="M203.667,21.961a.512.512,0,0,1-.386.44c-.455.179-.9.384-1.365.537a2.863,2.863,0,0,0-1.923,1.879c-.165.476-.366.94-.55,1.41-.088.226-.21.418-.488.408s-.389-.2-.476-.429c-.173-.457-.379-.9-.533-1.367a2.848,2.848,0,0,0-1.863-1.879c-.475-.168-.939-.367-1.409-.55-.228-.089-.41-.209-.4-.491.007-.261.191-.371.394-.453q.786-.318,1.579-.621a2.675,2.675,0,0,0,1.647-1.674c.18-.5.394-.995.587-1.494.087-.225.194-.431.47-.433.293,0,.416.208.509.451.185.485.386.965.569,1.451a2.748,2.748,0,0,0,1.636,1.693c.528.2,1.056.406,1.582.615.22.088.415.208.423.506" transform="translate(-172.393 11.142)" fill="#fff"/>
  </g>
</svg>
