<svg id="user_icon" data-name="user icon" xmlns="http://www.w3.org/2000/svg" xmlns:xlink="http://www.w3.org/1999/xlink" width="20.999" height="24.963" viewBox="0 0 20.999 24.963">
  <defs>
    <clipPath id="clip-path">
      <rect id="Rectangle_2613" data-name="Rectangle 2613" width="20.999" height="24.963" transform="translate(-3 -3)"/>
    </clipPath>
  </defs>
  <g id="Group_3883" data-name="Group 3883" transform="translate(3 3)" clip-path="url(#clip-path)">
    <path id="Path_11953" data-name="Path 11953" d="M.032,43.672a8.624,8.624,0,0,1,1.085-5.205,7.428,7.428,0,0,1,3.7-3.169A.257.257,0,0,1,5,35.307a5.663,5.663,0,0,0,4.986,0,.258.258,0,0,1,.234,0,7.6,7.6,0,0,1,4.688,6.075,14.25,14.25,0,0,1,.083,2.291Z" transform="translate(0 -24.709)"/>
    <path id="Path_11954" data-name="Path 11954" d="M18.556,5.016a4.942,4.942,0,0,1-4.825,5.035A4.938,4.938,0,0,1,8.865,5.033,4.938,4.938,0,0,1,13.69,0a4.934,4.934,0,0,1,4.866,5.016" transform="translate(-6.209 0.519)"/>
  </g>
</svg>
